<svg xmlns="http://www.w3.org/2000/svg" xmlns:xlink="http://www.w3.org/1999/xlink" style="margin:auto;background:linear-gradient(#d0e8fc, #d0e8fc);display:block;z-index:1;position:relative" width="1366" height="657" preserveAspectRatio="xMidYMid" viewBox="0 0 1366 657">
<g transform="translate(683,328.5) scale(1,1) translate(-683,-328.5)"><path id="path0" d="M 351.6433259267818 151.0605770138264
c 0 30.6276957195023 -7.494010654771839 8.797316855601725 -16.291327510373563 8.797316855601725
S 319.0606709060347 181.6882727333287 319.0606709060347 151.0605770138264
s 7.494010654771839 -8.797316855601725 16.291327510373563 -8.797316855601725
S 351.6433259267818 120.43288129432409 351.6433259267818 151.0605770138264
z" fill="none" stroke="none"></path>
<circle cx="0" cy="0" r="4.499247461359174" fill="#51cacc">
  <animateMotion begin="-7.2865435342456575s" dur="10s" repeatCount="indefinite">
    <mpath xlink:href="#path0"></mpath>
  </animateMotion>
</circle><path id="path1" d="M 1156.1508723346928 611.4427852975507
c 0 20.21790122327573 -4.9469332780355515 5.8072695003026045 -10.754202778338156 5.8072695003026045
S 1134.6424667780166 631.6606865208264 1134.6424667780166 611.4427852975507
s 4.9469332780355515 -5.8072695003026045 10.754202778338156 -5.8072695003026045
S 1156.1508723346928 591.224884074275 1156.1508723346928 611.4427852975507
z" fill="none" stroke="none"></path>
<circle cx="0" cy="0" r="5.029329292823547" fill="#e0ff77">
  <animateMotion begin="-3.6628775554648163s" dur="10s" repeatCount="indefinite">
    <mpath xlink:href="#path1"></mpath>
  </animateMotion>
</circle><path id="path2" d="M 1113.0010301097445 423.79076670291613
c 0 22.30028469146844 -5.456452637274193 6.405400922017531 -11.861853559291724 6.405400922017531
S 1089.2773229911609 446.0910513943846 1089.2773229911609 423.79076670291613
s 5.456452637274193 -6.405400922017531 11.861853559291724 -6.405400922017531
S 1113.0010301097445 401.4904820114477 1113.0010301097445 423.79076670291613
z" fill="none" stroke="none"></path>
<circle cx="0" cy="0" r="7.80712296629624" fill="#9df871">
  <animateMotion begin="-5.862934586385656s" dur="10s" repeatCount="indefinite">
    <mpath xlink:href="#path2"></mpath>
  </animateMotion>
</circle><path id="path3" d="M 1340.4243385709842 46.3336340309895
c 0 23.3439172368987 -5.711809536687979 6.705167716981542 -12.416977253669522 6.705167716981542
S 1315.5903840636452 69.6775512678882 1315.5903840636452 46.3336340309895
s 5.711809536687979 -6.705167716981542 12.416977253669522 -6.705167716981542
S 1340.4243385709842 22.9897167940908 1340.4243385709842 46.3336340309895
z" fill="none" stroke="none"></path>
<circle cx="0" cy="0" r="5.078420229787524" fill="#e0ff77">
  <animateMotion begin="-7.731409279917678s" dur="10s" repeatCount="indefinite">
    <mpath xlink:href="#path3"></mpath>
  </animateMotion>
</circle><path id="path4" d="M 590.4289893372751 390.82283023150427
c 0 34.529911073566 -8.448808028638489 9.918165946662574 -18.36697397530106 9.918165946662574
S 553.6950413866729 425.35274130507025 553.6950413866729 390.82283023150427
s 8.448808028638489 -9.918165946662574 18.36697397530106 -9.918165946662574
S 590.4289893372751 356.2929191579383 590.4289893372751 390.82283023150427
z" fill="none" stroke="none"></path>
<circle cx="0" cy="0" r="6.923561584296829" fill="#51cacc">
  <animateMotion begin="-6.2201946091466205s" dur="10s" repeatCount="indefinite">
    <mpath xlink:href="#path4"></mpath>
  </animateMotion>
</circle><path id="path5" d="M 451.2853965201301 109.21590649356285
c 0 27.718101354264604 -6.782088629234956 7.961582303884515 -14.743670933119471 7.961582303884515
S 421.7980546538912 136.93400784782744 421.7980546538912 109.21590649356285
s 6.782088629234956 -7.961582303884515 14.743670933119471 -7.961582303884515
S 451.2853965201301 81.49780513929825 451.2853965201301 109.21590649356285
z" fill="none" stroke="none"></path>
<circle cx="0" cy="0" r="5.807884974505664" fill="#ff708e">
  <animateMotion begin="-0.7596271257454434s" dur="10s" repeatCount="indefinite">
    <mpath xlink:href="#path5"></mpath>
  </animateMotion>
</circle><path id="path6" d="M 1301.5252098214114 133.20260498875777
c 0 20.045441843404465 -4.9047357701947085 5.757733295445963 -10.662469065640671 5.757733295445963
S 1280.2002716901302 153.24804683216223 1280.2002716901302 133.20260498875777
s 4.9047357701947085 -5.757733295445963 10.662469065640671 -5.757733295445963
S 1301.5252098214114 113.15716314535331 1301.5252098214114 133.20260498875777
z" fill="none" stroke="none"></path>
<circle cx="0" cy="0" r="7.296725916724133" fill="#e0ff77">
  <animateMotion begin="-7.730265104515928s" dur="10s" repeatCount="indefinite">
    <mpath xlink:href="#path6"></mpath>
  </animateMotion>
</circle><path id="path7" d="M 266.96595070230336 155.79907994980593
c 0 27.428843850446352 -6.711312857024107 7.878497701723953 -14.58981055874806 7.878497701723953
S 237.78632958480725 183.22792380025228 237.78632958480725 155.79907994980593
s 6.711312857024107 -7.878497701723953 14.58981055874806 -7.878497701723953
S 266.96595070230336 128.37023609935957 266.96595070230336 155.79907994980593
z" fill="none" stroke="none"></path>
<circle cx="0" cy="0" r="6.805687969366281" fill="#51cacc">
  <animateMotion begin="-3.59688554483244s" dur="10s" repeatCount="indefinite">
    <mpath xlink:href="#path7"></mpath>
  </animateMotion>
</circle><path id="path8" d="M 87.89749524048099 111.11796338577352
c 0 23.759385198473193 -5.813466591115781 6.824504259135917 -12.637970850251698 6.824504259135917
S 62.62155353997759 134.8773485842467 62.62155353997759 111.11796338577352
s 5.813466591115781 -6.824504259135917 12.637970850251698 -6.824504259135917
S 87.89749524048099 87.35857818730032 87.89749524048099 111.11796338577352
z" fill="none" stroke="none"></path>
<circle cx="0" cy="0" r="5.703056381679534" fill="#de9dd6">
  <animateMotion begin="-5.413994409335572s" dur="10s" repeatCount="indefinite">
    <mpath xlink:href="#path8"></mpath>
  </animateMotion>
</circle><path id="path9" d="M 629.234234440271 92.52506818932993
c 0 26.563405092934172 -6.499556565292403 7.629914228821518 -14.12947079411392 7.629914228821518
S 600.9752928520433 119.0884732822641 600.9752928520433 92.52506818932993
s 6.499556565292403 -7.629914228821518 14.12947079411392 -7.629914228821518
S 629.234234440271 65.96166309639575 629.234234440271 92.52506818932993
z" fill="none" stroke="none"></path>
<circle cx="0" cy="0" r="7.314191834955199" fill="#de9dd6">
  <animateMotion begin="-5.567452741393602s" dur="10s" repeatCount="indefinite">
    <mpath xlink:href="#path9"></mpath>
  </animateMotion>
</circle><path id="path10" d="M 391.4949888434425 71.27719768624465
c 0 21.734426587469606 -5.317997994806393 6.242867211294461 -11.560865206100853 6.242867211294461
S 368.3732584312408 93.01162427371426 368.3732584312408 71.27719768624465
s 5.317997994806393 -6.242867211294461 11.560865206100853 -6.242867211294461
S 391.4949888434425 49.54277109877504 391.4949888434425 71.27719768624465
z" fill="none" stroke="none"></path>
<circle cx="0" cy="0" r="5.50899494174189" fill="#e0ff77">
  <animateMotion begin="-9.46549377864087s" dur="10s" repeatCount="indefinite">
    <mpath xlink:href="#path10"></mpath>
  </animateMotion>
</circle><path id="path11" d="M 30.37599154386377 158.5826844805912
c 0 31.0838319061591 -7.605618445124034 8.928334696449955 -16.53395314157399 8.928334696449955
S -2.6919147392842078 189.66651638675032 -2.6919147392842078 158.5826844805912
s 7.605618445124034 -8.928334696449955 16.53395314157399 -8.928334696449955
S 30.37599154386377 127.4988525744321 30.37599154386377 158.5826844805912
z" fill="none" stroke="none"></path>
<circle cx="0" cy="0" r="6.834613274010557" fill="#de9dd6">
  <animateMotion begin="-2.4626028641784092s" dur="10s" repeatCount="indefinite">
    <mpath xlink:href="#path11"></mpath>
  </animateMotion>
</circle><path id="path12" d="M 32.697272087558986 479.81970583124973
c 0 32.47931659793417 -7.947066827154106 9.329165405789604 -17.27623223294371 9.329165405789604
S -1.8551923783284359 512.2990224291839 -1.8551923783284359 479.81970583124973
s 7.947066827154106 -9.329165405789604 17.27623223294371 -9.329165405789604
S 32.697272087558986 447.3403892333156 32.697272087558986 479.81970583124973
z" fill="none" stroke="none"></path>
<circle cx="0" cy="0" r="5.242008851160797" fill="#ff708e">
  <animateMotion begin="-6.756533491153876s" dur="10s" repeatCount="indefinite">
    <mpath xlink:href="#path12"></mpath>
  </animateMotion>
</circle><path id="path13" d="M 466.52194074998397 54.2633263761026
c 0 21.06897272750657 -5.155174178006926 6.051726208964653 -11.20690038697158 6.051726208964653
S 444.1081399760408 75.33229910360916 444.1081399760408 54.2633263761026
s 5.155174178006926 -6.051726208964653 11.20690038697158 -6.051726208964653
S 466.52194074998397 33.19435364859603 466.52194074998397 54.2633263761026
z" fill="none" stroke="none"></path>
<circle cx="0" cy="0" r="4.801700775209735" fill="#51cacc">
  <animateMotion begin="-4.725674681577658s" dur="10s" repeatCount="indefinite">
    <mpath xlink:href="#path13"></mpath>
  </animateMotion>
</circle><path id="path14" d="M 1019.1720282678057 640.8369872747026
c 0 30.115592727745042 -7.36870885891634 8.650223443075705 -16.018932301992045 8.650223443075705
S 987.1341636638215 670.9525800024476 987.1341636638215 640.8369872747026
s 7.36870885891634 -8.650223443075705 16.018932301992045 -8.650223443075705
S 1019.1720282678057 610.7213945469575 1019.1720282678057 640.8369872747026
z" fill="none" stroke="none"></path>
<circle cx="0" cy="0" r="6.823959650166143" fill="#de9dd6">
  <animateMotion begin="-4.9058285228332394s" dur="10s" repeatCount="indefinite">
    <mpath xlink:href="#path14"></mpath>
  </animateMotion>
</circle><path id="path15" d="M 1061.0845955197449 350.0393619543166
c 0 31.75549426783961 -7.769961363407563 9.12125899182627 -16.891220355233834 9.12125899182627
S 1027.3021548092772 381.79485622215617 1027.3021548092772 350.0393619543166
s 7.769961363407563 -9.12125899182627 16.891220355233834 -9.12125899182627
S 1061.0845955197449 318.283867686477 1061.0845955197449 350.0393619543166
z" fill="none" stroke="none"></path>
<circle cx="0" cy="0" r="6.127250507500709" fill="#ff708e">
  <animateMotion begin="-8.033637411023404s" dur="10s" repeatCount="indefinite">
    <mpath xlink:href="#path15"></mpath>
  </animateMotion>
</circle><path id="path16" d="M 422.2831978933956 163.85962806241457
c 0 32.321901823831915 -7.908550446256744 9.283950523866615 -17.19250097012336 9.283950523866615
S 387.89819595314884 196.1815298862465 387.89819595314884 163.85962806241457
s 7.908550446256744 -9.283950523866615 17.19250097012336 -9.283950523866615
S 422.2831978933956 131.53772623858265 422.2831978933956 163.85962806241457
z" fill="none" stroke="none"></path>
<circle cx="0" cy="0" r="7.3738248432559566" fill="#ff708e">
  <animateMotion begin="-4.880719231238793s" dur="10s" repeatCount="indefinite">
    <mpath xlink:href="#path16"></mpath>
  </animateMotion>
</circle><path id="path17" d="M 792.499325685018 259.9784317737225
c 0 25.9413920885541 -6.347361894007918 7.451250919052773 -13.798612813060691 7.451250919052773
S 764.9021000588966 285.9198238622766 764.9021000588966 259.9784317737225
s 6.347361894007918 -7.451250919052773 13.798612813060691 -7.451250919052773
S 792.499325685018 234.0370396851684 792.499325685018 259.9784317737225
z" fill="none" stroke="none"></path>
<circle cx="0" cy="0" r="7.244445108234217" fill="#9df871">
  <animateMotion begin="-2.572178502072191s" dur="10s" repeatCount="indefinite">
    <mpath xlink:href="#path17"></mpath>
  </animateMotion>
</circle><path id="path18" d="M 32.6527702164113 63.70906224783886
c 0 30.667938772125524 -7.503857359137095 8.808876030291374 -16.31273338942847 8.808876030291374
S 0.027303437554362375 94.37700101996438 0.027303437554362375 63.70906224783886
s 7.503857359137095 -8.808876030291374 16.31273338942847 -8.808876030291374
S 32.6527702164113 33.041123475713334 32.6527702164113 63.70906224783886
z" fill="none" stroke="none"></path>
<circle cx="0" cy="0" r="5.166753965269752" fill="#9df871">
  <animateMotion begin="-0.4590274344178824s" dur="10s" repeatCount="indefinite">
    <mpath xlink:href="#path18"></mpath>
  </animateMotion>
</circle><path id="path19" d="M 172.0635952414134 645.3319603111084
c 0 32.846408171774556 -8.036887105859732 9.434606602530991 -17.47149370839072 9.434606602530991
S 137.12060782463197 678.178368482883 137.12060782463197 645.3319603111084
s 8.036887105859732 -9.434606602530991 17.47149370839072 -9.434606602530991
S 172.0635952414134 612.4855521393339 172.0635952414134 645.3319603111084
z" fill="none" stroke="none"></path>
<circle cx="0" cy="0" r="4.670761924015541" fill="#de9dd6">
  <animateMotion begin="-1.8995688195125804s" dur="10s" repeatCount="indefinite">
    <mpath xlink:href="#path19"></mpath>
  </animateMotion>
</circle><path id="path20" d="M 119.72616407351194 106.63547381469932
c 0 22.274603186073442 -5.4501688646775435 6.398024319404073 -11.848193184081616 6.398024319404073
S 96.02977770534872 128.91007700077276 96.02977770534872 106.63547381469932
s 5.4501688646775435 -6.398024319404073 11.848193184081616 -6.398024319404073
S 119.72616407351194 84.36087062862589 119.72616407351194 106.63547381469932
z" fill="none" stroke="none"></path>
<circle cx="0" cy="0" r="5.742593495833037" fill="#9df871">
  <animateMotion begin="-7.5651979208822295s" dur="10s" repeatCount="indefinite">
    <mpath xlink:href="#path20"></mpath>
  </animateMotion>
</circle><path id="path21" d="M 1137.894366995962 38.71106802302912
c 0 36.1471852392851 -8.844524047910184 10.382702143198912 -19.227226191109096 10.382702143198912
S 1099.4399146137437 74.85825326231422 1099.4399146137437 38.71106802302912
s 8.844524047910184 -10.382702143198912 19.227226191109096 -10.382702143198912
S 1137.894366995962 2.5638827837440203 1137.894366995962 38.71106802302912
z" fill="none" stroke="none"></path>
<circle cx="0" cy="0" r="6.015444072513161" fill="#9df871">
  <animateMotion begin="-5.354237964862827s" dur="10s" repeatCount="indefinite">
    <mpath xlink:href="#path21"></mpath>
  </animateMotion>
</circle><path id="path22" d="M 718.3215720692332 393.50415082520703
c 0 37.389762878510176 -9.14855900218866 10.739612741699732 -19.888171743888392 10.739612741699732
S 678.5452285814564 430.8939137037172 678.5452285814564 393.50415082520703
s 9.14855900218866 -10.739612741699732 19.888171743888392 -10.739612741699732
S 718.3215720692332 356.11438794669687 718.3215720692332 393.50415082520703
z" fill="none" stroke="none"></path>
<circle cx="0" cy="0" r="5.741490718522985" fill="#e0ff77">
  <animateMotion begin="-8.720766028515413s" dur="10s" repeatCount="indefinite">
    <mpath xlink:href="#path22"></mpath>
  </animateMotion>
</circle><path id="path23" d="M 1071.0044564972131 154.51814080813242
c 0 33.96837919733953 -8.311411931263928 9.756874875831567 -18.068286807095497 9.756874875831567
S 1034.867882883022 188.48652000547196 1034.867882883022 154.51814080813242
s 8.311411931263928 -9.756874875831567 18.068286807095497 -9.756874875831567
S 1071.0044564972131 120.54976161079288 1071.0044564972131 154.51814080813242
z" fill="none" stroke="none"></path>
<circle cx="0" cy="0" r="4.132361173429324" fill="#9df871">
  <animateMotion begin="-4.894564765655913s" dur="10s" repeatCount="indefinite">
    <mpath xlink:href="#path23"></mpath>
  </animateMotion>
</circle><path id="path24" d="M 505.29373582490547 265.0544635592529
c 0 27.096831663057696 -6.630075832450286 7.783132498963381 -14.413208331413667 7.783132498963381
S 476.4673191620781 292.1512952223106 476.4673191620781 265.0544635592529
s 6.630075832450286 -7.783132498963381 14.413208331413667 -7.783132498963381
S 505.29373582490547 237.9576318961952 505.29373582490547 265.0544635592529
z" fill="none" stroke="none"></path>
<circle cx="0" cy="0" r="4.082504746542035" fill="#9df871">
  <animateMotion begin="-3.2355218375730765s" dur="10s" repeatCount="indefinite">
    <mpath xlink:href="#path24"></mpath>
  </animateMotion>
</circle><path id="path25" d="M 148.7860010527844 436.3549837985894
c 0 35.897644600237804 -8.78346623197308 10.31102557666405 -19.09449180863713 10.31102557666405
S 110.59701743551012 472.2526283988272 110.59701743551012 436.3549837985894
s 8.78346623197308 -10.31102557666405 19.09449180863713 -10.31102557666405
S 148.7860010527844 400.4573391983516 148.7860010527844 436.3549837985894
z" fill="none" stroke="none"></path>
<circle cx="0" cy="0" r="7.1665529623701545" fill="#51cacc">
  <animateMotion begin="-3.457211131524125s" dur="10s" repeatCount="indefinite">
    <mpath xlink:href="#path25"></mpath>
  </animateMotion>
</circle><path id="path26" d="M 1037.157477657815 49.97377067736531
c 0 31.57708590165996 -7.726308252533818 9.07001403558318 -16.796322288116997 9.07001403558318
S 1003.5648330815809 81.55085657902526 1003.5648330815809 49.97377067736531
s 7.726308252533818 -9.07001403558318 16.796322288116997 -9.07001403558318
S 1037.157477657815 18.39668477570535 1037.157477657815 49.97377067736531
z" fill="none" stroke="none"></path>
<circle cx="0" cy="0" r="7.063726991436363" fill="#51cacc">
  <animateMotion begin="-9.376820768219446s" dur="10s" repeatCount="indefinite">
    <mpath xlink:href="#path26"></mpath>
  </animateMotion>
</circle><path id="path27" d="M 1085.1790256523354 501.98097098732984
c 0 37.05313065389946 -9.066191542975398 10.642920506971121 -19.70911204994652 10.642920506971121
S 1045.7608015524424 539.0341016412293 1045.7608015524424 501.98097098732984
s 9.066191542975398 -10.642920506971121 19.70911204994652 -10.642920506971121
S 1085.1790256523354 464.92784033343037 1085.1790256523354 501.98097098732984
z" fill="none" stroke="none"></path>
<circle cx="0" cy="0" r="6.432742211495912" fill="#e0ff77">
  <animateMotion begin="-6.616742190910825s" dur="10s" repeatCount="indefinite">
    <mpath xlink:href="#path27"></mpath>
  </animateMotion>
</circle><path id="path28" d="M 1256.1906324895574 558.1896497077546
c 0 35.05567161099265 -8.577451564391817 10.06918227124257 -18.646633835634386 10.06918227124257
S 1218.8973648182885 593.2453213187473 1218.8973648182885 558.1896497077546
s 8.577451564391817 -10.06918227124257 18.646633835634386 -10.06918227124257
S 1256.1906324895574 523.1339780967619 1256.1906324895574 558.1896497077546
z" fill="none" stroke="none"></path>
<circle cx="0" cy="0" r="6.908739925058472" fill="#51cacc">
  <animateMotion begin="-8.195664744565113s" dur="10s" repeatCount="indefinite">
    <mpath xlink:href="#path28"></mpath>
  </animateMotion>
</circle><path id="path29" d="M 1132.5921475634646 170.30835849849865
c 0 35.11569723336404 -8.592138684759286 10.086423673413076 -18.67856235817236 10.086423673413076
S 1095.23502284712 205.4240557318627 1095.23502284712 170.30835849849865
s 8.592138684759286 -10.086423673413076 18.67856235817236 -10.086423673413076
S 1132.5921475634646 135.1926612651346 1132.5921475634646 170.30835849849865
z" fill="none" stroke="none"></path>
<circle cx="0" cy="0" r="6.5673181279270505" fill="#de9dd6">
  <animateMotion begin="-8.442873101219842s" dur="10s" repeatCount="indefinite">
    <mpath xlink:href="#path29"></mpath>
  </animateMotion>
</circle></g>
</svg>